PathFileType	4	(X/Y/Z)	C:/Users/beibeiliu/ov580/test_trc\sequence.30_training_dense_right.trc
DataRate	CameraRate	NumFrames	NumMarkers	Units	OrigDataRate	OrigDataStartFrame	OrigNumFrames
120	120	24	19	mm	120	310	354
Frame#	Time	ThumbCMC			ThumbMCP			ThumbIP			ThumbTip			IndexMCP			IndexPIP			IndexTip			MiddleMCP			MiddlePIP			MiddleTip			RingMCP			RingPIP			RingTip			PinkyMCP			PinkyPIP			PinkyTip			BackHand1			BackHand2			BackHand3	
		X0	Y0	Z0	X1	Y1	Z1	X2	Y2	Z2	X3	Y3	Z3	X4	Y4	Z4	X5	Y5	Z5	X6	Y6	Z6	X7	Y7	Z7	X8	Y8	Z8	X9	Y9	Z9	X10	Y10	Z10	X11	Y11	Z11	X12	Y12	Z12	X13	Y13	Z13	X14	Y14	Z14	X15	Y15	Z15	X16	Y16	Z16	X17	Y17	Z17	X18	Y18	Z18	
309	2.575	232.433	28.5007	61.5463	241.813	40.523	37.0738	252.639	48.6927	18.5816	259.33	55.407	9.16286	227.4	22.5659	-7.29734	205.807	31.725	-16.8369	183.536	44.417	-5.63179	223.237	-6.86677	-8.86713	215.198	-2.63347	-34.8953	206.873	-0.145148	-56.0693	205.131	-14.72	-6.09667	190.561	-6.00509	-21.7372	173.511	14.485	-27.9813	199.059	-32.4069	13.9151	198.762	-36.0041	0.176497	202.264	-45.6386	-16.3842	222.438	-18.9169	47.4176	220.79	-19.6091	71.1474	238.894	-1.40355	51.9189	
310	2.58333	236.954	27.5028	60.4941	241.774	35.3337	39.1555	255.578	45.5051	23.6294	265.302	50.345	10.6929	227.99	19.162	-7.16828	209.182	30.6939	-16.532	187.477	43.2243	-5.95094	222.509	-7.66639	-9.11526	215.32	-5.4226	-31.06	209.137	0.61933	-56.4079	203.772	-18.8979	-0.562487	191.988	-2.28287	-21.8377	177.456	17.6432	-26.2392	196.97	-33.9193	14.3686	197.5	-35.0649	-4.12897	198.081	-46.3027	-19.0385	222.145	-21.2761	45.2393	220.545	-18.3809	71.1875	238.215	-2.43456	52.243	
311	2.59167	237.552	22.9935	61.7992	245.429	34.4901	43.3481	256.25	38.1995	25.1301	268.724	46.8877	13.4604	229.259	14.0344	-6.15877	211.304	29.204	-16.3411	188.546	47.8558	-2.31606	223.989	-7.86265	-10.8421	216.441	-6.54541	-31.6064	208.889	-2.22793	-54.5006	205.779	-17.0751	-1.15475	190.8	-4.39871	-22.6242	177.475	17.6241	-26.3772	194.421	-32.3971	17.7501	192.36	-38.1181	-0.0998429	196.81	-43.829	-18.4583	218.667	-22.0336	46.3445	219.145	-21.8206	70.669	237.363	-5.33428	54.5159	
312	2.6	239.596	22.353	63.5359	248.774	30.9243	42.7585	262.683	36.6385	23.6959	272.42	41.0799	10.4364	231.333	14.5634	-6.90379	209.98	28.3853	-16.6657	192.434	43.1428	-5.6233	224.454	-10.0183	-9.46893	217.917	-6.59095	-32.3824	208.683	-3.13322	-54.6079	203.619	-20.0341	-3.91595	192.434	-6.81438	-20.7854	178.494	16.556	-27.3739	196.993	-33.347	14.2009	194.176	-36.6752	-2.24915	191.758	-48.971	-18.6469	217.803	-27.994	47.8719	222.299	-21.3687	69.2424	242.109	-7.25744	53.2054	
313	2.60833	240.018	18.2159	61.3651	251.527	30.4769	43.5063	264.137	33.9472	25.2618	275.514	40.293	14.1249	230.355	8.597	-4.45047	212.812	29.0662	-16.2497	193.564	42.7808	-4.29201	220.658	-15.2996	-9.48167	215.238	-9.73049	-31.2182	208.536	-5.25795	-54.9107	202.433	-23.0442	0.917127	190.968	-9.31438	-19.987	178.372	12.5767	-26.3053	195.117	-35.1477	15.1488	194.656	-38.4107	-2.76068	191.227	-49.014	-14.5891	218.517	-26.4663	44.5759	218.45	-25.8312	74.888	238.916	-10.3932	55.0564	
314	2.61667	242.783	20.0779	65.1259	249.067	27.599	44.5039	263.263	29.0572	21.7538	275.52	36.4846	12.7372	231.046	8.92591	-7.12326	214.674	25.0587	-17.531	193.775	39.6203	-3.97995	222.604	-15.4801	-8.65219	216.271	-10.2643	-33.9546	205.49	-9.66709	-52.9846	202.281	-22.8347	-0.617599	192.905	-8.9195	-18.8952	179.302	14.6365	-25.6334	196.938	-33.397	17.76	194.033	-38.4245	-0.597538	195.17	-46.78	-16.3413	215.798	-29.9961	45.5282	221.256	-23.4478	71.3976	240.37	-9.77641	55.3049	
315	2.625	240.206	17.049	65.6352	249.527	26.4421	44.185	261.582	28.5141	23.6228	275.696	37.2356	14.8783	230.789	5.46793	-5.25335	213.197	19.1646	-17.5553	192.536	40.5797	-2.38496	223.671	-16.1507	-6.70767	214.691	-14.3476	-32.379	208.444	-8.41486	-53.4013	200.578	-24.3089	-2.57898	191.415	-11.1165	-18.0891	178.646	14.1553	-25.0475	194.668	-37.4571	14.4879	192.751	-38.8882	-1.76505	189.74	-49.8199	-19.0534	217.61	-30.5404	45.518	219.249	-25.5164	73.5028	240.522	-13.6078	54.2475	
316	2.63333	241.604	16.8133	65.3772	249.212	23.067	41.1771	262.197	28.7909	25.8211	275.827	35.1249	13.4922	231.713	8.1055	-7.24603	212.615	24.241	-17.0204	192.487	37.2451	-3.39675	224.471	-15.3259	-8.69911	217.1	-14.8151	-28.563	206.148	-12.3604	-53.756	202.702	-23.0077	-1.37455	188.996	-11.7835	-19.4976	173.615	11.5676	-24.6404	194.55	-37.1936	14.0861	192.353	-39.743	2.06842	189.539	-50.5695	-16.74	217.464	-30.2956	50.3346	220.541	-27.7434	76.512	242.006	-12.0696	53.9717	
317	2.64167	241.03	16.3824	61.9685	253.35	24.6089	40.3066	265.974	28.1735	20.9864	273.533	30.9741	11.1423	231.69	6.61722	-6.72188	213.769	20.8462	-17.4812	194.881	37.6252	-5.63168	222.523	-17.7331	-10.6758	213.837	-15.7098	-30.4976	204.96	-11.4957	-54.6284	206.149	-22.541	2.24587	188.03	-10.3713	-19.7607	176.139	12.8604	-23.8708	194.288	-37.8804	17.2699	192.277	-39.9964	1.13335	192.685	-46.4045	-16.4303	217.194	-33.0308	46.2283	220.104	-29.3734	73.8437	239.921	-12.0807	53.5922	
318	2.65	242.122	15.7238	60.8171	250.034	25.4074	42.8776	263.161	27.4633	20.7146	272.876	33.4249	11.9894	229.989	5.69028	-5.82847	209.207	21.5245	-16.1141	190.324	38.3616	-2.84255	221.39	-17.4806	-9.40076	216.639	-12.6607	-29.0523	205.917	-10.5571	-56.0444	203.345	-23.4827	2.19073	190.566	-8.35747	-20.2679	177.912	14.0529	-24.9483	194.037	-37.985	17.2371	189.785	-42.315	2.83816	192.901	-48.1421	-15.3259	220.032	-28.1618	47.4151	220.504	-25.9988	72.0238	237.977	-13.51	53.8529	
319	2.65833	241.556	19.9312	64.4412	249.611	26.0476	40.2698	263.2	30.486	22.0376	273.396	38.3778	13.5375	230.346	5.96733	-3.46646	212.125	21.8494	-15.4402	192.469	43.2772	-1.87956	224.214	-13.8926	-7.20041	215.955	-10.9805	-32.5859	208.685	-8.57622	-52.9625	204.821	-20.3913	-2.84604	188.476	-10.8532	-19.1199	174.72	13.1159	-24.7405	194.539	-35.2813	19.0506	191.511	-40.0819	2.85158	193.819	-47.9791	-12.3535	219.708	-27.724	46.2381	219.602	-26.9019	74.6784	238.905	-11.4647	55.2882	
320	2.66667	242.121	20.0235	59.6205	246.994	29.4827	40.71	257.576	33.9448	21.1464	269.429	41.4658	10.7916	228.291	8.51716	-4.9255	210.945	27.5786	-15.7282	191.246	42.4664	-2.88306	223.313	-12.7281	-11.2618	216.79	-10.4462	-30.5953	206.816	-6.7492	-54.8062	202.153	-22.6097	-1.64343	187.922	-10.8165	-19.8766	175.298	11.1253	-27.4198	197.745	-33.4196	18.3527	194.198	-38.5023	2.63129	194.571	-50.4464	-14.4255	220.326	-25.2491	46.6115	219.596	-23.6703	73.6268	240.805	-8.29137	57.0652	
321	2.675	239.135	23.9053	62.1679	243.803	33.2461	40.3637	254.267	39.9133	19.111	262.888	46.3478	4.44985	228.837	11.2577	-4.5807	205.635	27.4973	-14.9119	189.988	42.9469	-2.39921	219.613	-14.5142	-11.0524	212.494	-11.3424	-30.8083	203.025	-8.52926	-55.0111	205.995	-18.9889	-0.875455	189.44	-10.2848	-21.1603	179.112	7.66187	-27.9291	197.111	-34.5803	13.9577	193.905	-40.1194	0.87489	196.162	-48.7391	-16.5091	221.216	-26.2003	46.887	222.562	-24.1939	71.3224	237.773	-9.53405	53.8798	
322	2.68333	238.196	25.6108	59.0904	238.532	34.4746	37.1785	246.354	43.2044	15.7495	249.837	48.273	1.32754	228.361	10.5079	-3.81305	207.412	28.4748	-17.4522	187.506	39.1826	-5.23758	222.935	-10.6542	-11.1331	215.35	-9.06276	-33.1702	204.013	-4.99288	-58.3446	204.048	-20.1239	-3.06403	189.157	-8.7306	-22.1844	176.101	9.84651	-29.4104	195.546	-36.804	15.3128	195.686	-37.0658	0.945597	193.598	-49.1521	-18.4124	218.11	-27.9911	45.4987	221.424	-24.9534	69.7906	236.772	-7.57832	56.8399	
323	2.69167	234.043	27.4482	60.2572	234.515	38.3515	34.8787	236.134	45.8085	17.3469	238.736	53.2698	-4.64775	229.413	12.1348	-7.06562	207.797	24.8717	-21.0872	186.207	40.5192	-9.66072	223.432	-12.7818	-7.57056	216.135	-8.14057	-35.0789	205.66	-5.12636	-55.1477	206.291	-21.3107	0.221655	193.46	-8.43212	-22.4833	175.982	5.28421	-28.9515	197.234	-36.1192	15.7249	197.994	-37.7465	-1.96847	195.987	-47.7695	-19.244	222.042	-23.0343	45.6583	223.626	-21.6007	69.6225	239.696	-4.02826	57.627	
324	2.7	232.197	29.1373	56.0983	231.176	43.2337	31.4958	227.858	47.4551	11.8016	226.255	54.0006	-9.14217	232.322	13.4732	-7.60139	212.277	25.7692	-26.0452	186.917	39.2147	-20.3589	225.059	-10.8607	-9.6907	217.423	-8.99481	-36.2996	207.249	-5.94577	-54.7273	207.736	-21.0784	-2.03529	192.838	-14.1487	-22.3574	178.779	5.79587	-30.4646	200.912	-33.8262	13.5459	196.847	-39.2596	-2.85924	195.307	-44.0696	-18.2031	217.31	-23.6383	46.73	221.475	-20.8548	69.307	237.942	-1.92753	51.8517	
325	2.70833	230.339	30.7982	58.7043	224.577	44.6101	30.6853	219.806	49.4036	9.35207	213.373	51.4613	-12.8588	233.718	13.4366	-9.33312	217.01	18.7192	-26.9142	194.166	34.4112	-29.3362	226.861	-9.84061	-10.846	219.758	-9.10237	-35.6746	207.882	-6.69648	-55.6207	210.474	-18.99	-1.8384	198.511	-12.7707	-22.247	177.991	5.66054	-30.45	198.524	-35.516	13.7676	197.723	-39.0979	-4.60263	194.143	-41.3847	-25.414	219.592	-22.1485	44.3442	220.041	-20.675	68.1345	239.278	-1.04066	52.3207	
326	2.71667	228.939	33.8034	59.0902	217.441	43.357	29.4116	211.389	44.8688	6.02929	202.012	43.4732	-11.4184	232.337	8.99423	-8.80517	220.393	16.2402	-27.2186	201.425	33.4734	-35.3715	227.375	-11.2538	-6.41289	219.832	-11.1888	-35.6598	210.243	-5.27898	-57.7628	210.843	-20.2922	1.14675	197.286	-16.2319	-23.5435	181.835	3.72796	-31.6658	198.963	-35.4451	13.8997	196.73	-37.9324	-6.26157	195.026	-42.1519	-22.3284	220.384	-19.6115	45.9388	219.527	-21.2409	71.7378	235.839	-3.66999	57.3778	
327	2.725	225.939	29.7933	55.1562	214.515	47.268	30.585	205.067	44.1038	10.2372	192.333	37.5182	-11.5441	237.222	11.1759	-5.32298	223.723	16.6565	-28.3605	204.543	32.8624	-40.1391	227.375	-12.2067	-8.58463	223.958	-10.4987	-32.0005	208.705	-4.18257	-57.7346	209.774	-21.6795	-1.6335	201.753	-12.3996	-23.4129	183.771	5.96788	-30.7878	198.792	-33.5363	14.279	196.196	-37.0724	-4.55791	192.866	-37.8954	-27.0332	218.06	-22.8634	46.1046	222.636	-18.1417	70.5938	236.981	-3.08565	54.4783	
328	2.73333	224.981	32.1337	56.0779	210.443	41.8702	29.5658	200.803	42.8466	9.66758	185.894	38.0924	-11.5823	239.065	13.3018	-4.43516	227.692	18.4346	-29.5585	209.686	31.1968	-42.5065	229.276	-11.1955	-7.47256	224.012	-6.2271	-36.0952	209.835	-2.18906	-56.7274	214.614	-17.7919	-4.1777	199.819	-12.8723	-23.3278	181.072	10.2571	-29.2606	202.502	-29.7413	14.987	199.43	-34.6511	-7.88895	197.283	-37.4297	-23.2231	220.173	-19.8602	47.0764	219.011	-19.6235	70.4121	236.625	0.14424	54.79	
329	2.74167	224.847	32.156	56.9776	207.72	42.2441	29.9462	197.352	42.7386	6.56137	184.39	30.9083	-8.37453	239.697	11.859	-2.50267	231.347	18.906	-30.3399	211.896	27.7586	-46.963	229.766	-8.63983	-10.7215	221.912	-4.83113	-36.9331	208.485	5.65199	-56.8681	212.572	-19.0506	0.615526	197.458	-10.8965	-24.227	184.875	8.53171	-28.2513	202.222	-32.219	15.4343	198.238	-38.4318	-4.14557	195.928	-35.1914	-25.8895	222.932	-17.797	46.7696	221.789	-20.056	70.3458	240.807	1.78741	57.3848	
330	2.75	225.312	31.1076	52.4811	207.858	43.4346	27.2872	196.765	37.8685	8.76391	180.791	27.9759	-11.8609	240.525	11.6826	-3.32878	233.124	17.1837	-29.8305	221.171	26.552	-47.465	231.887	-5.66194	-10.5696	221.957	-2.52047	-34.0326	202.868	7.45914	-52.0029	214.122	-18.096	-3.83814	200.822	-4.78937	-25.7957	183.014	13.3587	-26.2161	202.63	-32.1227	17.296	201.251	-36.5215	-3.83034	198.478	-36.6047	-25.9929	222.768	-17.1956	47.3378	221.144	-20.3106	69.5079	239.358	2.19701	57.8804	
331	2.75833	225.439	35.6396	57.1846	206.39	41.2992	24.4962	195.047	35.0108	4.46023	181.088	27.9574	-11.609	244.039	14.4173	-6.96699	237.513	19.7242	-31.3239	226.692	21.6648	-47.4675	231.109	-4.29676	-10.4485	215.621	-0.583906	-35.0573	197.448	14.0821	-48.5727	214.466	-17.1104	0.105502	200.787	-8.10065	-22.6752	183.029	9.86589	-24.6242	205.968	-31.984	14.1611	203.757	-37.6344	-4.4405	200.149	-39.299	-23.189	222.23	-21.4751	45.7966	220.048	-18.567	73.1659	238.082	0.135227	54.2995	
332	2.76667	223.57	30.6695	55.9896	205.063	42.2904	29.9514	194.973	36.3277	5.51225	181.289	25.1324	-11.4029	245.462	14.5376	-4.0908	239.272	14.3645	-26.9779	230.619	19.9466	-47.2226	229.3	-4.13585	-9.44333	215.154	1.31687	-34.4324	188.503	16.7908	-43.3122	213.903	-19.4369	-2.79852	199.124	-9.03616	-21.269	182.964	14.5168	-21.0455	205.521	-35.3274	13.6669	205.214	-37.4828	-7.12325	197.783	-39.4748	-27.1362	223.662	-22.975	43.5447	221.986	-18.6042	72.1229	238.052	0.157598	58.7507	
